<svg version="1.2" xmlns="http://www.w3.org/2000/svg" viewBox="0 0 128 128" width="128" height="128">
	<title>crosshair052(1)-svg</title>
	<style>
		.s0 { fill: #ffffff } 
	</style>
	<path id="Layer" class="s0" d="m16 16c0.6 8 8.5 13.7 14 19 1.8 1.7 4.9 5.2 7.6 3.2 3.3-2.3-0.9-6.4-2.6-8.2-5.3-5.5-11-13.4-19-14zm96 0c-8 0.6-13.7 8.5-19 14-1.7 1.8-5.2 4.9-3.2 7.6 2.3 3.3 6.4-0.9 8.2-2.6 5.5-5.3 13.4-11 14-19zm-80 44h5c1.7-11.5 11.5-21.3 23-23v-5c-15 1.3-26.8 13-28 28zm36-28v5c11.4 2.6 21 11.2 23 23h5c-1.3-14.8-13.2-26.7-28-28zm-36 36c1.2 14.5 13.1 27.3 28 28v-5c-11.3-1.7-21.3-11.7-23-23zm59 0c-1.7 11.3-11.7 21.3-23 23v5c14.6-0.7 26.7-13.7 28-28zm-75 44c8-0.6 13.7-8.5 19-14 1.7-1.8 5.9-5.9 2.6-8.2-2.7-2-5.8 1.5-7.6 3.2-5.5 5.3-13.4 11-14 19zm96 0c-0.6-8-8.5-13.7-14-19-1.8-1.7-4.9-5.2-7.6-3.2-3.3 2.3 0.9 6.4 2.6 8.2 5.3 5.5 11 13.4 19 14z"/>
</svg>