<?xml version="1.0" standalone="yes"?>
<svg xmlns="http://www.w3.org/2000/svg" width="128" height="128">
<path style="fill:#010101; stroke:none;" d="M0 0L0 128L128 128L128 0L0 0z"/>
<path style="fill:#ffffff; stroke:none;" d="M16 16C16.6066 24.0468 24.4735 29.7303 30 34.9799C31.7613 36.653 34.9103 40.1977 37.6235 38.2485C40.9291 35.8736 36.6692 31.7784 34.9799 30C29.7303 24.4735 24.0468 16.6066 16 16M112 16C103.953 16.6066 98.2697 24.4735 93.0201 30C91.347 31.7613 87.8023 34.9103 89.7515 37.6235C92.1264 40.9291 96.2216 36.6692 98 34.9799C103.526 29.7303 111.393 24.0468 112 16M32 60L37 60C38.7352 48.4659 48.4991 38.7239 60 37L60 32C44.9927 33.3102 33.2286 44.9783 32 60M68 32L68 37C79.4009 39.6451 88.956 48.1671 91 60L96 60C94.7044 45.1599 82.805 33.2926 68 32M32 68C33.188 82.5249 45.1452 95.3196 60 96L60 91C48.7172 89.3026 38.6974 79.2827 37 68L32 68M91 68C89.3026 79.2828 79.2828 89.3026 68 91L68 96C82.6451 95.3292 94.7474 82.3471 96 68L91 68M16 112C24.0468 111.393 29.7303 103.527 34.9799 98C36.6692 96.2216 40.9291 92.1264 37.6235 89.7515C34.9103 87.8023 31.7613 91.347 30 93.0201C24.4735 98.2697 16.6066 103.953 16 112M112 112C111.393 103.953 103.527 98.2697 98 93.0201C96.2387 91.347 93.0897 87.8023 90.3765 89.7515C87.0709 92.1264 91.3308 96.2216 93.0201 98C98.2697 103.527 103.953 111.393 112 112z"/>
</svg>
